<!DOCTYPE svg PUBLIC "-//W3C//DTD SVG 20010904//EN"
 "http://www.w3.org/TR/2001/REC-SVG-20010904/DTD/svg10.dtd">
<svg version="1.0" xmlns="http://www.w3.org/2000/svg"
 width="312.000000pt" height="355.000000pt" viewBox="0 0 312.000000 355.000000"
 preserveAspectRatio="xMidYMid meet">

<g transform="translate(0.000000,355.000000) scale(0.100000,-0.100000)"
fill="inherit" stroke="none">
<path d="M1842 3270 c-183 -26 -394 -138 -493 -262 -69 -86 -139 -226 -139
-277 0 -54 -12 -49 -71 25 -68 86 -114 114 -154 96 -39 -18 -49 -56 -36 -132
7 -36 13 -71 14 -79 1 -8 -11 -21 -28 -31 -36 -20 -55 -53 -55 -96 0 -23 -10
-42 -36 -68 -31 -31 -35 -40 -29 -67 l7 -31 -34 18 c-128 66 -301 162 -344
191 -39 26 -60 34 -85 31 -30 -3 -34 -7 -37 -35 -2 -18 6 -49 17 -72 24 -47
26 -88 6 -115 -8 -11 -15 -39 -15 -62 0 -26 -7 -51 -19 -66 -22 -28 -30 -126
-16 -210 10 -64 1 -105 -40 -168 -19 -30 -35 -67 -35 -83 0 -62 32 -153 77
-219 44 -64 68 -86 156 -138 l38 -22 -26 -25 c-14 -14 -25 -34 -25 -45 0 -27
-23 -69 -54 -97 -31 -29 -33 -63 -6 -114 27 -51 25 -67 -14 -118 -25 -33 -34
-57 -38 -98 -5 -46 -11 -60 -40 -86 -19 -18 -39 -34 -44 -36 -19 -8 -64 -71
-64 -90 0 -29 44 -69 76 -69 44 0 88 35 118 95 16 30 33 55 38 55 5 0 19 -7
33 -16 27 -18 93 -21 122 -6 25 14 69 66 106 126 31 50 59 66 156 90 31 8 65
17 77 21 20 6 22 2 26 -57 17 -199 178 -415 394 -527 266 -136 569 -153 894
-49 434 139 654 436 638 861 -7 185 -51 285 -180 417 -107 109 -235 191 -563
360 -442 229 -590 361 -640 571 -19 83 -19 163 1 252 54 238 234 384 487 395
87 4 106 2 171 -22 87 -32 168 -99 208 -172 30 -56 58 -155 58 -206 0 -69 27
-133 67 -161 56 -38 99 -42 152 -15 65 34 86 67 85 136 -2 94 -64 206 -168
305 -77 73 -175 129 -296 168 -79 25 -115 31 -215 34 -66 2 -149 0 -183 -5z
m-716 -638 c22 -14 86 -126 91 -159 8 -49 -10 -41 -42 20 -16 28 -39 66 -52
83 -32 43 -30 79 3 56z m-32 -158 c18 -39 14 -57 -8 -33 -16 17 -30 69 -18 69
5 0 16 -16 26 -36z m-517 -83 c43 -32 89 -70 102 -84 35 -38 22 -53 -19 -23
-38 28 -66 46 -143 91 -34 20 -53 38 -55 53 -6 38 31 26 115 -37z m453 7 c17
-22 28 -44 25 -46 -9 -9 -65 51 -65 70 0 26 7 23 40 -24z m-60 -58 c10 -5 29
-24 41 -41 l22 -31 -24 7 c-30 9 -69 44 -69 62 0 16 5 16 30 3z m339 -42 c45
-56 109 -391 125 -643 l6 -90 -21 65 c-36 115 -80 213 -135 300 -30 47 -71
119 -91 160 -33 65 -38 84 -37 142 0 69 11 94 49 108 28 10 79 -10 104 -42z
m-789 -28 c26 -13 40 -27 40 -40 0 -25 -11 -25 -44 1 -25 20 -53 59 -41 59 3
0 24 -9 45 -20z m-22 -116 c30 -20 29 -38 -3 -30 -51 13 -75 26 -75 42 0 13 6
15 28 9 15 -3 37 -13 50 -21z m360 -25 c99 -54 143 -87 222 -163 110 -106 213
-254 265 -381 l17 -40 -67 65 c-37 36 -73 71 -80 77 -44 42 -201 135 -332 199
-84 41 -169 89 -189 106 -69 61 -84 130 -36 168 39 32 104 22 200 -31z m-349
-88 c12 -8 13 -12 1 -26 -18 -22 -84 -17 -88 7 -5 24 58 37 87 19z m1066 -105
c66 -44 123 -85 127 -90 24 -35 -8 -226 -38 -226 -39 0 -44 11 -44 90 0 86
-10 123 -42 158 -20 21 -68 31 -68 15 0 -5 16 -20 35 -36 24 -19 39 -43 50
-79 17 -58 20 -124 6 -133 -5 -3 -34 -2 -64 1 l-55 6 -6 92 c-7 83 -17 168
-32 255 -3 18 -2 32 3 30 4 -2 62 -40 128 -83z m-967 -48 c34 -5 62 -13 62
-17 0 -3 -24 -16 -53 -29 -53 -22 -99 -27 -157 -16 -34 7 -57 41 -46 69 6 17
64 16 194 -7z m1299 -139 c391 -202 523 -302 597 -453 63 -130 70 -252 25
-416 -70 -250 -252 -426 -508 -489 -186 -46 -473 -17 -641 64 -121 58 -131 65
-205 139 -83 84 -144 193 -169 303 -26 119 -24 132 35 176 27 20 54 37 58 37
5 0 14 6 20 14 12 15 179 99 220 111 24 7 23 6 -7 -31 -18 -21 -32 -41 -32
-45 0 -4 -16 -33 -35 -65 -41 -68 -43 -84 -11 -84 51 0 124 98 143 191 3 17
20 38 43 54 42 29 94 97 103 135 4 18 16 29 39 35 29 9 34 15 39 52 8 64 21
75 72 57 58 -20 132 -76 161 -122 67 -107 74 -238 14 -261 -28 -10 -50 0 -94
45 -70 70 -160 68 -234 -6 -45 -45 -58 -93 -41 -150 24 -80 80 -120 169 -120
114 0 210 58 267 161 28 50 30 61 30 159 0 94 -3 111 -27 160 -38 77 -109 147
-185 183 -48 22 -63 34 -59 46 2 9 12 36 21 61 9 24 19 66 22 92 3 27 7 48 9
48 1 0 74 -37 161 -81z m-910 -10 c66 -31 96 -50 168 -104 52 -38 156 -137
151 -142 -2 -3 -18 3 -36 12 -38 20 -162 41 -290 50 -176 12 -250 41 -250 97
0 17 6 19 50 17 27 -2 52 0 56 3 3 3 -2 20 -10 36 -24 47 -13 62 46 62 35 0
69 -9 115 -31z m-457 -1 c39 -9 48 -14 34 -19 -45 -18 -144 -3 -144 21 0 13
47 13 110 -2z m60 -103 c0 -3 -16 -12 -36 -20 -63 -26 -126 -14 -76 14 17 10
112 15 112 6z m984 -73 c9 -14 -6 -52 -20 -52 -7 0 -20 -13 -28 -29 -9 -16
-22 -31 -31 -34 -12 -5 -15 4 -15 58 l0 65 44 0 c25 0 47 -4 50 -8z m46 -16
c0 -14 -28 -42 -35 -34 -2 2 -2 14 2 26 6 24 33 31 33 8z m-1016 -12 c26 -10
18 -23 -18 -30 -43 -7 -62 2 -45 22 12 15 37 18 63 8z m581 -132 c79 -23 169
-61 162 -69 -3 -3 -38 0 -77 6 -75 12 -148 6 -320 -24 -47 -8 -98 -15 -115
-15 -50 0 -104 20 -116 42 -15 29 23 65 81 78 74 15 305 4 385 -18z m-594 -83
c-28 -23 -41 -24 -41 -5 0 14 50 38 60 29 3 -3 -6 -13 -19 -24z m679 -28 c0
-5 -30 -19 -67 -30 -99 -31 -265 -117 -482 -248 -67 -41 -121 -55 -121 -33 0
6 21 32 47 59 27 26 59 63 72 83 49 71 247 153 405 167 131 12 146 12 146 2z
m-620 -70 c0 -19 -94 -29 -105 -12 -5 9 23 17 78 20 15 0 27 -3 27 -8z m-89
-108 c16 -3 29 -12 29 -19 0 -18 -21 -18 -70 2 -45 18 -55 40 -14 30 15 -4 39
-10 55 -13z m-17 -192 c10 -15 -28 -40 -72 -47 -48 -8 -56 6 -19 37 23 19 82
26 91 10z"/>
</g>
</svg>
